name C:\Users\r0593348\3dpredictsim\Results\batch_windlass\Pog_s1_tmt_bCst_d00_k1000_WL40_ig24_act_TTC.mot
datacolumns 128
datarows 4
range 1.84747626 1.88442579
endheader
time	pelvis_tilt	pelvis_list	pelvis_rotation	pelvis_tx	pelvis_ty	pelvis_tz	hip_flexion_l	hip_adduction_l	hip_rotation_l	hip_flexion_r	hip_adduction_r	hip_rotation_r	knee_angle_l	knee_angle_r	ankle_angle_l	ankle_angle_r	subtalar_angle_l	subtalar_angle_r	tmt_angle_l	tmt_angle_r	mtp_angle_l	mtp_angle_r	lumbar_extension	lumbar_bending	lumbar_rotation	arm_flex_l	arm_add_l	arm_rot_l	arm_flex_r	arm_add_r	arm_rot_r	elbow_flex_l	elbow_flex_r	pro_sup_l	pro_sup_r	glut_med1_l/activation	glut_med2_l/activation	glut_med3_l/activation	glut_min1_l/activation	glut_min2_l/activation	glut_min3_l/activation	semimem_l/activation	semiten_l/activation	bifemlh_l/activation	bifemsh_l/activation	sar_l/activation	add_long_l/activation	add_brev_l/activation	add_mag1_l/activation	add_mag2_l/activation	add_mag3_l/activation	tfl_l/activation	pect_l/activation	grac_l/activation	glut_max1_l/activation	glut_max2_l/activation	glut_max3_l/activation	iliacus_l/activation	psoas_l/activation	quad_fem_l/activation	gem_l/activation	peri_l/activation	rect_fem_l/activation	vas_med_l/activation	vas_int_l/activation	vas_lat_l/activation	med_gas_l/activation	lat_gas_l/activation	soleus_l/activation	tib_post_l/activation	flex_dig_l/activation	flex_hal_l/activation	tib_ant_l/activation	per_brev_l/activation	per_long_l/activation	per_tert_l/activation	ext_dig_l/activation	ext_hal_l/activation	ercspn_l/activation	intobl_l/activation	extobl_l/activation	glut_med1_r/activation	glut_med2_r/activation	glut_med3_r/activation	glut_min1_r/activation	glut_min2_r/activation	glut_min3_r/activation	semimem_r/activation	semiten_r/activation	bifemlh_r/activation	bifemsh_r/activation	sar_r/activation	add_long_r/activation	add_brev_r/activation	add_mag1_r/activation	add_mag2_r/activation	add_mag3_r/activation	tfl_r/activation	pect_r/activation	grac_r/activation	glut_max1_r/activation	glut_max2_r/activation	glut_max3_r/activation	iliacus_r/activation	psoas_r/activation	quad_fem_r/activation	gem_r/activation	peri_r/activation	rect_fem_r/activation	vas_med_r/activation	vas_int_r/activation	vas_lat_r/activation	med_gas_r/activation	lat_gas_r/activation	soleus_r/activation	tib_post_r/activation	flex_dig_r/activation	flex_hal_r/activation	tib_ant_r/activation	per_brev_r/activation	per_long_r/activation	per_tert_r/activation	ext_dig_r/activation	ext_hal_r/activation	ercspn_r/activation	intobl_r/activation	extobl_r/activation	
          1.84747626	         -2.92758453	          0.66734650	         -7.70495577	          2.30934533	          0.86234573	          0.00116002	         32.53310809	          0.83519753	          2.40422687	        -14.51345262	         -1.46309638	          9.80631088	        -17.73290187	        -18.03073138	         10.02874085	         -9.16819866	          3.45916890	         19.64667864	         -0.56549321	        -15.00000000	          1.20807949	         35.37477787	          0.15906463	          1.26927398	          2.91719375	        -15.15460109	        -13.69372624	          8.82860211	          2.29085142	        -13.53905779	         17.13661834	         20.02627342	         48.03884641	         86.51662706	         86.51662706	          0.12378021	          0.05050158	          0.06026375	          0.05000003	          0.05000004	          0.05000008	          0.07044835	          0.07263433	          0.07455877	          0.05478636	          0.05000002	          0.06068513	          0.14531025	          0.17947329	          0.17070024	          0.11484435	          0.06026364	          0.05000018	          0.06175533	          0.06026377	          0.09674599	          0.09339299	          0.05475698	          0.05739755	          0.26563445	          0.05000002	          0.05000033	          0.05000001	          0.07555037	          0.09589043	          0.06799750	          0.06026375	          0.06026376	          0.07079453	          0.06026375	          0.07387480	          0.07593313	          0.47892245	          0.23381986	          0.20180423	          0.08585293	          0.60339003	          0.33545237	          0.05000000	          0.09393900	          0.09168410	          0.19245874	          0.08162137	          0.05000001	          0.21085690	          0.14147472	          0.08446166	          0.05000911	          0.06017383	          0.05742658	          0.05000032	          0.07263441	          0.15986297	          0.11544868	          0.11114368	          0.05000111	          0.06026375	          0.15534958	          0.05000038	          0.05000052	          0.05000042	          0.05000039	          0.05000099	          0.26247357	          0.35347026	          0.05000004	          0.05000023	          0.05214810	          0.10858510	          0.08604947	          0.08646921	          0.07705537	          0.11832833	          0.16386511	          0.05000000	          0.10074710	          0.11120363	          0.12297556	          0.41259671	          0.50845772	          0.35667012	          0.72903432	          0.54144024	          0.16060390	          0.05000000	          0.05444607	          0.05000003	
          1.85979277	         -2.91704761	          0.62128290	         -7.79753597	          2.32929080	          0.86090306	          0.00080472	         31.73849754	          1.12977190	          2.57963454	        -14.39748615	         -1.56648894	          9.44933986	        -17.12774304	        -19.90231400	          9.43445533	        -11.63203789	          3.13593346	         19.90814862	         -0.71239028	        -14.44162865	          1.51641464	         33.69418894	          0.40930354	          1.06882227	          3.02489703	        -16.49076255	        -13.68748839	          8.79934799	          1.73996533	        -13.60605110	         17.30264284	         19.87362634	         49.20649674	         86.51662706	         86.51662706	          0.11307286	          0.06026374	          0.05000001	          0.06026376	          0.06026375	          0.06026354	          0.05845002	          0.06026370	          0.06186038	          0.05000000	          0.05000031	          0.08754434	          0.12717476	          0.14890652	          0.15214630	          0.16006595	          0.05000001	          0.07535589	          0.05123755	          0.05000003	          0.08026881	          0.19480871	          0.05000499	          0.05000001	          0.22039325	          0.19999698	          0.21666646	          0.07263448	          0.26231075	          0.25573946	          0.21683678	          0.05000000	          0.05000000	          0.05873724	          0.05000000	          0.06129291	          0.06300067	          0.71386656	          0.31898815	          0.16743423	          0.49802493	          0.73670055	          0.58637426	          0.05000000	          0.07793988	          0.07606902	          0.15968035	          0.06772023	          0.05378681	          0.17494504	          0.11737961	          0.07263433	          0.05000007	          0.05000001	          0.05000001	          0.05000000	          0.06026379	          0.13532339	          0.23054340	          0.12621560	          0.05002456	          0.05000003	          0.12889139	          0.07858419	          0.05007943	          0.05000021	          0.05000013	          0.05000006	          0.21777067	          0.29326936	          0.07263441	          0.05000083	          0.06794769	          0.09009155	          0.07263439	          0.07263439	          0.07263439	          0.09817537	          0.13595660	          0.05000000	          0.08358846	          0.09226411	          0.10203112	          0.35977221	          0.42186033	          0.30263026	          0.70196525	          0.74819635	          0.42182237	          0.06622485	          0.05712429	          0.06026387	
          1.87210928	         -2.89859985	          0.58761150	         -7.85450406	          2.34929556	          0.85873830	          0.00045744	         30.84569612	          1.43474876	          2.82421194	        -14.08637385	         -1.63357661	          9.11666616	        -17.23631473	        -22.29251835	          8.57729821	        -13.53909681	          2.80008229	         20.06287844	         -0.92734445	        -13.12522387	          1.87694434	         30.15929578	          0.65697930	          0.84539136	          3.11521271	        -17.72516097	        -13.69815963	          8.92660184	          1.15383160	        -13.68307807	         17.38725639	         19.52727271	         50.34681279	         86.51662706	         86.51662706	          0.24143077	          0.05000001	          0.19935974	          0.05000001	          0.05000001	          0.05000001	          0.05000000	          0.05000000	          0.05132470	          0.05000000	          0.05000002	          0.07263440	          0.10551515	          0.25017266	          0.25668338	          0.16059372	          0.05000003	          0.06252254	          0.05000001	          0.17488026	          0.15803187	          0.16163008	          0.05000001	          0.05000002	          0.26488499	          0.16593471	          0.17976516	          0.06026383	          0.32514426	          0.31120295	          0.26695799	          0.05494834	          0.05521709	          0.06026374	          0.05000000	          0.06026370	          0.06026372	          0.62849671	          0.34327313	          0.17267180	          0.67777807	          0.73060042	          0.48650657	          0.05000000	          0.06466563	          0.06311341	          0.13248457	          0.06026374	          0.06026375	          0.14514947	          0.09738823	          0.06026372	          0.05622917	          0.05000000	          0.05000002	          0.05000000	          0.05000005	          0.15140169	          0.33954307	          0.29133880	          0.12717548	          0.14034441	          0.10693939	          0.06520028	          0.05000006	          0.06026373	          0.06026379	          0.08754433	          0.18068130	          0.24332151	          0.06026379	          0.06026377	          0.05726788	          0.07474770	          0.06026375	          0.06026375	          0.06026375	          0.08145474	          0.11280130	          0.05156443	          0.06935219	          0.07655026	          0.08465380	          0.55164337	          0.38987142	          0.27835589	          0.58241080	          0.62076809	          0.34998015	          0.09027035	          0.06026374	          0.05000010	
          1.88442579	         -2.87390610	          0.57387215	         -7.87244357	          2.36915977	          0.85610034	          0.00011219	         29.82620711	          1.73560975	          3.10159958	        -13.55417388	         -1.67151514	          8.83086362	        -17.76005734	        -25.17965139	          8.13519246	        -14.99462091	          2.41362478	         20.19434437	         -1.61979281	        -11.07768689	          2.01820748	         24.90518080	          0.89039643	          0.59472756	          3.18691018	        -18.80770816	        -13.72093171	          9.22221871	          0.57664881	        -13.75391566	         17.41145403	         18.96113985	         51.38934715	         86.51662706	         86.51662706	          0.36636927	          0.37746966	          0.50604138	          0.28925790	          0.11826726	          0.35764884	          0.07126971	          0.09134522	          0.07465597	          0.07153743	          0.05000004	          0.06026376	          0.08754445	          0.20756478	          0.21296667	          0.16757011	          0.05000000	          0.05187428	          0.08754436	          0.29552299	          0.22698475	          0.18424996	          0.05000001	          0.05000000	          0.21977140	          0.13767374	          0.32472488	          0.05000006	          0.26976805	          0.30277737	          0.24880391	          0.05000000	          0.05000000	          0.05000000	          0.05000000	          0.05000000	          0.05000000	          0.79600068	          0.28480893	          0.14326339	          0.82306198	          0.85206771	          0.71803125	          0.06594991	          0.06026374	          0.05236432	          0.25888727	          0.05000000	          0.05000000	          0.16291739	          0.08080167	          0.05000001	          0.12826416	          0.11340114	          0.16886184	          0.07054101	          0.05451343	          0.17050724	          0.29314425	          0.24171976	          0.10551577	          0.11644181	          0.08872613	          0.07946693	          0.10652957	          0.05000006	          0.05000006	          0.07263432	          0.15101985	          0.24836163	          0.05000003	          0.05000003	          0.05000000	          0.06201713	          0.05000000	          0.05000000	          0.05000000	          0.06758186	          0.09358967	          0.05327727	          0.06026374	          0.06351270	          0.07023609	          0.54806824	          0.32347089	          0.23094801	          0.48321814	          0.79175674	          0.35828309	          0.11556130	          0.05000000	          0.05000000	
